<?xml version="1.0" encoding="UTF-8" standalone="no"?>
<svg
   xmlns:dc="http://purl.org/dc/elements/1.1/"
   xmlns:cc="http://creativecommons.org/ns#"
   xmlns:rdf="http://www.w3.org/1999/02/22-rdf-syntax-ns#"
   xmlns:svg="http://www.w3.org/2000/svg"
   xmlns="http://www.w3.org/2000/svg"
   xmlns:sodipodi="http://sodipodi.sourceforge.net/DTD/sodipodi-0.dtd"
   xmlns:inkscape="http://www.inkscape.org/namespaces/inkscape"
   inkscape:version="1.0 (4035a4fb49, 2020-05-01)"
   sodipodi:docname="feather-alt-solid.svg"
   id="svg4"
   version="1.1"
   viewBox="0 0 512 512"
   role="img"
   class="svg-inline--fa fa-feather-alt fa-w-16"
   data-icon="feather-alt"
   data-prefix="fas"
   focusable="false"
   aria-hidden="true">
  <metadata
     id="metadata10">
    <rdf:RDF>
      <cc:Work
         rdf:about="">
        <dc:format>image/svg+xml</dc:format>
        <dc:type
           rdf:resource="http://purl.org/dc/dcmitype/StillImage" />
      </cc:Work>
    </rdf:RDF>
  </metadata>
  <defs
     id="defs8" />
  <sodipodi:namedview
     inkscape:current-layer="svg4"
     inkscape:window-maximized="0"
     inkscape:window-y="557"
     inkscape:window-x="1489"
     inkscape:cy="256"
     inkscape:cx="256"
     inkscape:zoom="1.6601562"
     showgrid="false"
     id="namedview6"
     inkscape:window-height="859"
     inkscape:window-width="1349"
     inkscape:pageshadow="2"
     inkscape:pageopacity="0"
     guidetolerance="10"
     gridtolerance="10"
     objecttolerance="10"
     borderopacity="1"
     bordercolor="#666666"
     pagecolor="#ffffff" />
  <path
     style="fill:#ffff00"
     id="path2"
     d="M 512,0 C 460.22,3.56 96.44,38.2 71.01,287.61 c -3.09,26.66 -4.84,53.44 -5.99,80.24 L 243.89,189.16 c 6.25,-6.25 16.4,-6.25 22.65,0 6.25,6.25 6.25,16.38 0,22.63 L 7.04,471.03 c -9.38,9.37 -9.38,24.57 0,33.94 9.38,9.37 24.59,9.37 33.98,0 L 98.15,447.9 c 42.09,-0.14 84.15,-2.53 125.96,-7.36 53.48,-5.44 97.02,-26.47 132.58,-56.54 H 255.74 L 402.53,335.12 C 413.78,320.23 423.9,304.41 432.98,288 H 351.84 L 458.38,234.79 C 500.29,132.86 510.19,26.26 512,0 Z"
     fill="currentColor" />
</svg>
